<mxfile host="65bd71144e">
    <diagram name="Page-1" id="JemFavnScZ3A6EYh_MlP">
        <mxGraphModel dx="1594" dy="896" grid="1" gridSize="10" guides="1" tooltips="1" connect="1" arrows="1" fold="1" page="1" pageScale="1" pageWidth="827" pageHeight="1169" background="#FFFFFF" math="0" shadow="0">
            <root>
                <mxCell id="0"/>
                <mxCell id="1" parent="0"/>
                <mxCell id="28" style="edgeStyle=orthogonalEdgeStyle;html=1;strokeColor=#DD344C;rounded=0;curved=0;" edge="1" parent="1" source="3ZOsoVZSbwRSdBa1bhDs-9" target="13">
                    <mxGeometry relative="1" as="geometry">
                        <Array as="points">
                            <mxPoint x="310" y="590"/>
                            <mxPoint x="310" y="120"/>
                        </Array>
                    </mxGeometry>
                </mxCell>
                <mxCell id="26" style="edgeStyle=orthogonalEdgeStyle;html=1;rounded=0;strokeColor=#DD344C;" edge="1" parent="1" source="3ZOsoVZSbwRSdBa1bhDs-6" target="13">
                    <mxGeometry relative="1" as="geometry">
                        <Array as="points">
                            <mxPoint x="310" y="230"/>
                            <mxPoint x="310" y="120"/>
                        </Array>
                    </mxGeometry>
                </mxCell>
                <mxCell id="29" style="edgeStyle=orthogonalEdgeStyle;html=1;strokeColor=#DD344C;rounded=0;curved=0;" edge="1" parent="1" source="3ZOsoVZSbwRSdBa1bhDs-7" target="13">
                    <mxGeometry relative="1" as="geometry">
                        <Array as="points">
                            <mxPoint x="310" y="350"/>
                            <mxPoint x="310" y="120"/>
                        </Array>
                    </mxGeometry>
                </mxCell>
                <mxCell id="30" value="Get&amp;nbsp;&lt;span style=&quot;background-color: light-dark(#ffffff, var(--ge-dark-color, #121212));&quot;&gt;Username&lt;/span&gt;" style="edgeLabel;html=1;align=center;verticalAlign=middle;resizable=0;points=[];" vertex="1" connectable="0" parent="29">
                    <mxGeometry x="0.7285" y="1" relative="1" as="geometry">
                        <mxPoint y="-2" as="offset"/>
                    </mxGeometry>
                </mxCell>
                <mxCell id="3ZOsoVZSbwRSdBa1bhDs-38" style="rounded=0;orthogonalLoop=1;jettySize=auto;html=1;fontColor=#000000;strokeColor=#000000;dashed=1;" parent="1" source="3ZOsoVZSbwRSdBa1bhDs-30" target="3ZOsoVZSbwRSdBa1bhDs-37" edge="1">
                    <mxGeometry relative="1" as="geometry"/>
                </mxCell>
                <mxCell id="12" value="VPC - Private Subnets" style="points=[[0,0],[0.25,0],[0.5,0],[0.75,0],[1,0],[1,0.25],[1,0.5],[1,0.75],[1,1],[0.75,1],[0.5,1],[0.25,1],[0,1],[0,0.75],[0,0.5],[0,0.25]];outlineConnect=0;gradientColor=none;html=1;whiteSpace=wrap;fontSize=12;fontStyle=0;container=1;pointerEvents=0;collapsible=0;recursiveResize=0;shape=mxgraph.aws4.group;grIcon=mxgraph.aws4.group_vpc2;strokeColor=#8C4FFF;fillColor=none;verticalAlign=top;align=left;spacingLeft=30;fontColor=#000000;dashed=0;" vertex="1" parent="1">
                    <mxGeometry x="288" y="40" width="342" height="800" as="geometry"/>
                </mxCell>
                <mxCell id="3ZOsoVZSbwRSdBa1bhDs-54" value="SQS Cleanup Function" style="sketch=0;points=[[0,0,0],[0.25,0,0],[0.5,0,0],[0.75,0,0],[1,0,0],[0,1,0],[0.25,1,0],[0.5,1,0],[0.75,1,0],[1,1,0],[0,0.25,0],[0,0.5,0],[0,0.75,0],[1,0.25,0],[1,0.5,0],[1,0.75,0]];outlineConnect=0;fontColor=#000000;fillColor=#ED7100;strokeColor=#ffffff;dashed=0;verticalLabelPosition=bottom;verticalAlign=top;align=center;html=1;fontSize=12;fontStyle=0;aspect=fixed;shape=mxgraph.aws4.resourceIcon;resIcon=mxgraph.aws4.lambda;" parent="12" vertex="1">
                    <mxGeometry x="52" y="666" width="80" height="80" as="geometry"/>
                </mxCell>
                <mxCell id="21" style="edgeStyle=none;html=1;" edge="1" parent="12" source="3ZOsoVZSbwRSdBa1bhDs-55" target="11">
                    <mxGeometry relative="1" as="geometry"/>
                </mxCell>
                <mxCell id="11" value="Neptune DB" style="sketch=0;points=[[0,0,0],[0.25,0,0],[0.5,0,0],[0.75,0,0],[1,0,0],[0,1,0],[0.25,1,0],[0.5,1,0],[0.75,1,0],[1,1,0],[0,0.25,0],[0,0.5,0],[0,0.75,0],[1,0.25,0],[1,0.5,0],[1,0.75,0]];outlineConnect=0;fontColor=#232F3E;gradientColor=#4D72F3;gradientDirection=north;fillColor=#3334B9;strokeColor=#ffffff;dashed=0;verticalLabelPosition=bottom;verticalAlign=top;align=center;html=1;fontSize=12;fontStyle=0;aspect=fixed;shape=mxgraph.aws4.resourceIcon;resIcon=mxgraph.aws4.neptune;labelBackgroundColor=default;" parent="12" vertex="1">
                    <mxGeometry x="231.28" y="280" width="80" height="80" as="geometry"/>
                </mxCell>
                <mxCell id="3ZOsoVZSbwRSdBa1bhDs-55" value="SQS Delete Function" style="sketch=0;points=[[0,0,0],[0.25,0,0],[0.5,0,0],[0.75,0,0],[1,0,0],[0,1,0],[0.25,1,0],[0.5,1,0],[0.75,1,0],[1,1,0],[0,0.25,0],[0,0.5,0],[0,0.75,0],[1,0.25,0],[1,0.5,0],[1,0.75,0]];outlineConnect=0;fontColor=#000000;fillColor=#ED7100;strokeColor=#ffffff;dashed=0;verticalLabelPosition=bottom;verticalAlign=top;align=center;html=1;fontSize=12;fontStyle=0;aspect=fixed;shape=mxgraph.aws4.resourceIcon;resIcon=mxgraph.aws4.lambda;labelBackgroundColor=default;" parent="12" vertex="1">
                    <mxGeometry x="231.28" y="518" width="80" height="80" as="geometry"/>
                </mxCell>
                <mxCell id="25" value="" style="group" vertex="1" connectable="0" parent="12">
                    <mxGeometry x="213.78" y="656" width="113" height="130" as="geometry"/>
                </mxCell>
                <mxCell id="3ZOsoVZSbwRSdBa1bhDs-37" value="Webhooks Function&lt;br&gt;(optional)" style="sketch=0;points=[[0,0,0],[0.25,0,0],[0.5,0,0],[0.75,0,0],[1,0,0],[0,1,0],[0.25,1,0],[0.5,1,0],[0.75,1,0],[1,1,0],[0,0.25,0],[0,0.5,0],[0,0.75,0],[1,0.25,0],[1,0.5,0],[1,0.75,0]];outlineConnect=0;fontColor=#000000;fillColor=#ED7100;strokeColor=#ffffff;dashed=0;verticalLabelPosition=bottom;verticalAlign=top;align=center;html=1;fontSize=12;fontStyle=0;aspect=fixed;shape=mxgraph.aws4.resourceIcon;resIcon=mxgraph.aws4.lambda;labelBackgroundColor=default;" parent="25" vertex="1">
                    <mxGeometry x="18" y="10" width="78" height="78" as="geometry"/>
                </mxCell>
                <mxCell id="3ZOsoVZSbwRSdBa1bhDs-49" value="" style="rounded=0;whiteSpace=wrap;html=1;dashed=1;glass=0;opacity=25;fontColor=#000000;" parent="25" vertex="1">
                    <mxGeometry width="113" height="130" as="geometry"/>
                </mxCell>
                <mxCell id="3ZOsoVZSbwRSdBa1bhDs-3" style="edgeStyle=orthogonalEdgeStyle;rounded=0;orthogonalLoop=1;jettySize=auto;html=1;fontColor=#000000;strokeColor=#000000;" parent="1" source="3ZOsoVZSbwRSdBa1bhDs-1" target="3ZOsoVZSbwRSdBa1bhDs-2" edge="1">
                    <mxGeometry relative="1" as="geometry"/>
                </mxCell>
                <mxCell id="3ZOsoVZSbwRSdBa1bhDs-4" value="OAuth" style="edgeLabel;html=1;align=center;verticalAlign=middle;resizable=0;points=[];fontColor=#000000;labelBackgroundColor=#FFFFFF;" parent="3ZOsoVZSbwRSdBa1bhDs-3" vertex="1" connectable="0">
                    <mxGeometry x="-0.082" y="-2" relative="1" as="geometry">
                        <mxPoint as="offset"/>
                    </mxGeometry>
                </mxCell>
                <mxCell id="3ZOsoVZSbwRSdBa1bhDs-1" value="Cognito" style="sketch=0;points=[[0,0,0],[0.25,0,0],[0.5,0,0],[0.75,0,0],[1,0,0],[0,1,0],[0.25,1,0],[0.5,1,0],[0.75,1,0],[1,1,0],[0,0.25,0],[0,0.5,0],[0,0.75,0],[1,0.25,0],[1,0.5,0],[1,0.75,0]];outlineConnect=0;fontColor=#000000;fillColor=#DD344C;strokeColor=#ffffff;dashed=0;verticalLabelPosition=bottom;verticalAlign=top;align=center;html=1;fontSize=12;fontStyle=0;aspect=fixed;shape=mxgraph.aws4.resourceIcon;resIcon=mxgraph.aws4.cognito;" parent="1" vertex="1">
                    <mxGeometry x="20" y="320" width="80" height="80" as="geometry"/>
                </mxCell>
                <mxCell id="3ZOsoVZSbwRSdBa1bhDs-10" style="rounded=0;orthogonalLoop=1;jettySize=auto;html=1;entryX=0;entryY=0.5;entryDx=0;entryDy=0;entryPerimeter=0;fontColor=#000000;strokeColor=#000000;" parent="1" source="3ZOsoVZSbwRSdBa1bhDs-2" target="3ZOsoVZSbwRSdBa1bhDs-5" edge="1">
                    <mxGeometry relative="1" as="geometry"/>
                </mxCell>
                <mxCell id="3ZOsoVZSbwRSdBa1bhDs-15" value="service" style="edgeLabel;html=1;align=center;verticalAlign=middle;resizable=0;points=[];fontColor=#000000;labelBackgroundColor=#FFFFFF;" parent="3ZOsoVZSbwRSdBa1bhDs-10" vertex="1" connectable="0">
                    <mxGeometry x="0.0623" y="-2" relative="1" as="geometry">
                        <mxPoint as="offset"/>
                    </mxGeometry>
                </mxCell>
                <mxCell id="3ZOsoVZSbwRSdBa1bhDs-11" style="rounded=0;orthogonalLoop=1;jettySize=auto;html=1;entryX=0;entryY=0.5;entryDx=0;entryDy=0;entryPerimeter=0;fontColor=#000000;strokeColor=#000000;" parent="1" source="3ZOsoVZSbwRSdBa1bhDs-2" target="3ZOsoVZSbwRSdBa1bhDs-6" edge="1">
                    <mxGeometry relative="1" as="geometry"/>
                </mxCell>
                <mxCell id="3ZOsoVZSbwRSdBa1bhDs-16" value="sources" style="edgeLabel;html=1;align=center;verticalAlign=middle;resizable=0;points=[];fontColor=#000000;labelBackgroundColor=#FFFFFF;" parent="3ZOsoVZSbwRSdBa1bhDs-11" vertex="1" connectable="0">
                    <mxGeometry x="-0.1877" y="-2" relative="1" as="geometry">
                        <mxPoint as="offset"/>
                    </mxGeometry>
                </mxCell>
                <mxCell id="3ZOsoVZSbwRSdBa1bhDs-12" style="rounded=0;orthogonalLoop=1;jettySize=auto;html=1;fontColor=#000000;strokeColor=#000000;" parent="1" source="3ZOsoVZSbwRSdBa1bhDs-2" target="3ZOsoVZSbwRSdBa1bhDs-7" edge="1">
                    <mxGeometry relative="1" as="geometry"/>
                </mxCell>
                <mxCell id="3ZOsoVZSbwRSdBa1bhDs-17" value="flows" style="edgeLabel;html=1;align=center;verticalAlign=middle;resizable=0;points=[];fontColor=#000000;labelBackgroundColor=#FFFFFF;" parent="3ZOsoVZSbwRSdBa1bhDs-12" vertex="1" connectable="0">
                    <mxGeometry x="-0.1463" y="-3" relative="1" as="geometry">
                        <mxPoint as="offset"/>
                    </mxGeometry>
                </mxCell>
                <mxCell id="3ZOsoVZSbwRSdBa1bhDs-13" style="rounded=0;orthogonalLoop=1;jettySize=auto;html=1;entryX=0;entryY=0.5;entryDx=0;entryDy=0;entryPerimeter=0;fontColor=#000000;strokeColor=#000000;" parent="1" source="3ZOsoVZSbwRSdBa1bhDs-2" target="3ZOsoVZSbwRSdBa1bhDs-8" edge="1">
                    <mxGeometry relative="1" as="geometry"/>
                </mxCell>
                <mxCell id="3ZOsoVZSbwRSdBa1bhDs-18" value="delete&lt;br&gt;requests" style="edgeLabel;html=1;align=center;verticalAlign=middle;resizable=0;points=[];fontColor=#000000;labelBackgroundColor=#FFFFFF;" parent="3ZOsoVZSbwRSdBa1bhDs-13" vertex="1" connectable="0">
                    <mxGeometry x="-0.1754" y="3" relative="1" as="geometry">
                        <mxPoint x="-1" as="offset"/>
                    </mxGeometry>
                </mxCell>
                <mxCell id="3ZOsoVZSbwRSdBa1bhDs-14" style="rounded=0;orthogonalLoop=1;jettySize=auto;html=1;fontColor=#000000;strokeColor=#000000;" parent="1" source="3ZOsoVZSbwRSdBa1bhDs-2" target="3ZOsoVZSbwRSdBa1bhDs-9" edge="1">
                    <mxGeometry relative="1" as="geometry"/>
                </mxCell>
                <mxCell id="3ZOsoVZSbwRSdBa1bhDs-19" value="segments" style="edgeLabel;html=1;align=center;verticalAlign=middle;resizable=0;points=[];fontColor=#000000;labelBackgroundColor=#FFFFFF;" parent="3ZOsoVZSbwRSdBa1bhDs-14" vertex="1" connectable="0">
                    <mxGeometry x="-0.1168" y="-1" relative="1" as="geometry">
                        <mxPoint x="-4" y="4" as="offset"/>
                    </mxGeometry>
                </mxCell>
                <mxCell id="3ZOsoVZSbwRSdBa1bhDs-2" value="API Gateway" style="sketch=0;points=[[0,0,0],[0.25,0,0],[0.5,0,0],[0.75,0,0],[1,0,0],[0,1,0],[0.25,1,0],[0.5,1,0],[0.75,1,0],[1,1,0],[0,0.25,0],[0,0.5,0],[0,0.75,0],[1,0.25,0],[1,0.5,0],[1,0.75,0]];outlineConnect=0;fontColor=#000000;fillColor=#8C4FFF;strokeColor=#ffffff;dashed=0;verticalLabelPosition=bottom;verticalAlign=top;align=center;html=1;fontSize=12;fontStyle=0;aspect=fixed;shape=mxgraph.aws4.resourceIcon;resIcon=mxgraph.aws4.api_gateway;" parent="1" vertex="1">
                    <mxGeometry x="170" y="320" width="80" height="80" as="geometry"/>
                </mxCell>
                <mxCell id="3ZOsoVZSbwRSdBa1bhDs-43" style="rounded=0;orthogonalLoop=1;jettySize=auto;html=1;fontColor=#000000;strokeColor=#000000;dashed=1;" parent="1" source="3ZOsoVZSbwRSdBa1bhDs-5" target="3ZOsoVZSbwRSdBa1bhDs-48" edge="1">
                    <mxGeometry relative="1" as="geometry">
                        <mxPoint x="540" y="119" as="targetPoint"/>
                    </mxGeometry>
                </mxCell>
                <mxCell id="3ZOsoVZSbwRSdBa1bhDs-44" value="webhooks" style="edgeLabel;html=1;align=center;verticalAlign=middle;resizable=0;points=[];fontColor=#000000;labelBackgroundColor=#FFFFFF;" parent="3ZOsoVZSbwRSdBa1bhDs-43" vertex="1" connectable="0">
                    <mxGeometry x="0.1967" y="-1" relative="1" as="geometry">
                        <mxPoint as="offset"/>
                    </mxGeometry>
                </mxCell>
                <mxCell id="3ZOsoVZSbwRSdBa1bhDs-5" value="Service&amp;nbsp;Function" style="sketch=0;points=[[0,0,0],[0.25,0,0],[0.5,0,0],[0.75,0,0],[1,0,0],[0,1,0],[0.25,1,0],[0.5,1,0],[0.75,1,0],[1,1,0],[0,0.25,0],[0,0.5,0],[0,0.75,0],[1,0.25,0],[1,0.5,0],[1,0.75,0]];outlineConnect=0;fontColor=#000000;fillColor=#ED7100;strokeColor=#ffffff;dashed=0;verticalLabelPosition=bottom;verticalAlign=top;align=center;html=1;fontSize=12;fontStyle=0;aspect=fixed;shape=mxgraph.aws4.resourceIcon;resIcon=mxgraph.aws4.lambda;" parent="1" vertex="1">
                    <mxGeometry x="340" y="80" width="80" height="80" as="geometry"/>
                </mxCell>
                <mxCell id="3ZOsoVZSbwRSdBa1bhDs-23" style="rounded=0;orthogonalLoop=1;jettySize=auto;html=1;fontColor=#000000;strokeColor=#000000;" parent="1" source="3ZOsoVZSbwRSdBa1bhDs-6" target="11" edge="1">
                    <mxGeometry relative="1" as="geometry">
                        <mxPoint x="540" y="280" as="targetPoint"/>
                    </mxGeometry>
                </mxCell>
                <mxCell id="3ZOsoVZSbwRSdBa1bhDs-26" value="sources" style="edgeLabel;html=1;align=center;verticalAlign=middle;resizable=0;points=[];fontColor=#000000;labelBackgroundColor=#FFFFFF;" parent="3ZOsoVZSbwRSdBa1bhDs-23" vertex="1" connectable="0">
                    <mxGeometry x="-0.2107" y="-1" relative="1" as="geometry">
                        <mxPoint x="24" y="3" as="offset"/>
                    </mxGeometry>
                </mxCell>
                <mxCell id="3ZOsoVZSbwRSdBa1bhDs-32" style="rounded=0;orthogonalLoop=1;jettySize=auto;html=1;fontColor=#000000;strokeColor=#7AA116;edgeStyle=orthogonalEdgeStyle;" parent="1" source="3ZOsoVZSbwRSdBa1bhDs-6" target="3ZOsoVZSbwRSdBa1bhDs-30" edge="1">
                    <mxGeometry relative="1" as="geometry">
                        <Array as="points">
                            <mxPoint x="460" y="240"/>
                            <mxPoint x="460" y="900"/>
                        </Array>
                    </mxGeometry>
                </mxCell>
                <mxCell id="3ZOsoVZSbwRSdBa1bhDs-6" value="Sources&amp;nbsp;Function" style="sketch=0;points=[[0,0,0],[0.25,0,0],[0.5,0,0],[0.75,0,0],[1,0,0],[0,1,0],[0.25,1,0],[0.5,1,0],[0.75,1,0],[1,1,0],[0,0.25,0],[0,0.5,0],[0,0.75,0],[1,0.25,0],[1,0.5,0],[1,0.75,0]];outlineConnect=0;fontColor=#000000;fillColor=#ED7100;strokeColor=#ffffff;dashed=0;verticalLabelPosition=bottom;verticalAlign=top;align=center;html=1;fontSize=12;fontStyle=0;aspect=fixed;shape=mxgraph.aws4.resourceIcon;resIcon=mxgraph.aws4.lambda;" parent="1" vertex="1">
                    <mxGeometry x="340" y="200" width="80" height="80" as="geometry"/>
                </mxCell>
                <mxCell id="3ZOsoVZSbwRSdBa1bhDs-22" style="rounded=0;orthogonalLoop=1;jettySize=auto;html=1;fontColor=#000000;strokeColor=#000000;edgeStyle=orthogonalEdgeStyle;" parent="1" source="3ZOsoVZSbwRSdBa1bhDs-7" edge="1" target="11">
                    <mxGeometry relative="1" as="geometry">
                        <mxPoint x="540" y="280" as="targetPoint"/>
                        <Array as="points">
                            <mxPoint x="450" y="350"/>
                            <mxPoint x="450" y="350"/>
                        </Array>
                    </mxGeometry>
                </mxCell>
                <mxCell id="3ZOsoVZSbwRSdBa1bhDs-27" value="flows" style="edgeLabel;html=1;align=center;verticalAlign=middle;resizable=0;points=[];fontColor=#000000;labelBackgroundColor=#FFFFFF;" parent="3ZOsoVZSbwRSdBa1bhDs-22" vertex="1" connectable="0">
                    <mxGeometry x="-0.1348" y="-1" relative="1" as="geometry">
                        <mxPoint x="18" y="-1" as="offset"/>
                    </mxGeometry>
                </mxCell>
                <mxCell id="3ZOsoVZSbwRSdBa1bhDs-33" style="rounded=0;orthogonalLoop=1;jettySize=auto;html=1;fontColor=#000000;strokeColor=#7AA116;edgeStyle=orthogonalEdgeStyle;" parent="1" source="3ZOsoVZSbwRSdBa1bhDs-7" target="3ZOsoVZSbwRSdBa1bhDs-30" edge="1">
                    <mxGeometry relative="1" as="geometry">
                        <Array as="points">
                            <mxPoint x="460" y="360"/>
                            <mxPoint x="460" y="900"/>
                        </Array>
                    </mxGeometry>
                </mxCell>
                <mxCell id="3ZOsoVZSbwRSdBa1bhDs-56" style="rounded=0;orthogonalLoop=1;jettySize=auto;html=1;fontColor=#000000;strokeColor=#000000;exitX=0;exitY=0.75;exitDx=0;exitDy=0;exitPerimeter=0;entryX=0.5;entryY=0;entryDx=0;entryDy=0;entryPerimeter=0;edgeStyle=orthogonalEdgeStyle;" parent="1" source="3ZOsoVZSbwRSdBa1bhDs-7" target="3ZOsoVZSbwRSdBa1bhDs-53" edge="1">
                    <mxGeometry relative="1" as="geometry">
                        <Array as="points">
                            <mxPoint x="320" y="380"/>
                            <mxPoint x="320" y="520"/>
                            <mxPoint x="210" y="520"/>
                        </Array>
                    </mxGeometry>
                </mxCell>
                <mxCell id="3ZOsoVZSbwRSdBa1bhDs-57" value="storage" style="edgeLabel;html=1;align=center;verticalAlign=middle;resizable=0;points=[];fontColor=#000000;labelBackgroundColor=#FFFFFF;" parent="3ZOsoVZSbwRSdBa1bhDs-56" vertex="1" connectable="0">
                    <mxGeometry x="0.4758" y="4" relative="1" as="geometry">
                        <mxPoint x="-6" y="10" as="offset"/>
                    </mxGeometry>
                </mxCell>
                <mxCell id="3ZOsoVZSbwRSdBa1bhDs-65" style="rounded=0;orthogonalLoop=1;jettySize=auto;html=1;fontColor=#000000;strokeColor=#000000;edgeStyle=orthogonalEdgeStyle;" parent="1" source="3ZOsoVZSbwRSdBa1bhDs-7" target="3ZOsoVZSbwRSdBa1bhDs-52" edge="1">
                    <mxGeometry relative="1" as="geometry">
                        <Array as="points">
                            <mxPoint x="380" y="310"/>
                            <mxPoint x="660" y="310"/>
                            <mxPoint x="660" y="350"/>
                        </Array>
                    </mxGeometry>
                </mxCell>
                <mxCell id="3ZOsoVZSbwRSdBa1bhDs-7" value="Flows Function" style="sketch=0;points=[[0,0,0],[0.25,0,0],[0.5,0,0],[0.75,0,0],[1,0,0],[0,1,0],[0.25,1,0],[0.5,1,0],[0.75,1,0],[1,1,0],[0,0.25,0],[0,0.5,0],[0,0.75,0],[1,0.25,0],[1,0.5,0],[1,0.75,0]];outlineConnect=0;fontColor=#000000;fillColor=#ED7100;strokeColor=#ffffff;dashed=0;verticalLabelPosition=bottom;verticalAlign=top;align=center;html=1;fontSize=12;fontStyle=0;aspect=fixed;shape=mxgraph.aws4.resourceIcon;resIcon=mxgraph.aws4.lambda;" parent="1" vertex="1">
                    <mxGeometry x="340" y="320" width="80" height="80" as="geometry"/>
                </mxCell>
                <mxCell id="3ZOsoVZSbwRSdBa1bhDs-24" style="rounded=0;orthogonalLoop=1;jettySize=auto;html=1;fontColor=#000000;strokeColor=#000000;" parent="1" source="3ZOsoVZSbwRSdBa1bhDs-8" edge="1" target="11">
                    <mxGeometry relative="1" as="geometry">
                        <mxPoint x="540" y="290" as="targetPoint"/>
                    </mxGeometry>
                </mxCell>
                <mxCell id="3ZOsoVZSbwRSdBa1bhDs-28" value="delete&lt;br&gt;requests" style="edgeLabel;html=1;align=center;verticalAlign=middle;resizable=0;points=[];fontColor=#000000;labelBackgroundColor=#FFFFFF;" parent="3ZOsoVZSbwRSdBa1bhDs-24" vertex="1" connectable="0">
                    <mxGeometry x="0.0401" y="2" relative="1" as="geometry">
                        <mxPoint x="19" y="-17" as="offset"/>
                    </mxGeometry>
                </mxCell>
                <mxCell id="3ZOsoVZSbwRSdBa1bhDs-34" style="rounded=0;orthogonalLoop=1;jettySize=auto;html=1;fontColor=#000000;strokeColor=#7AA116;edgeStyle=orthogonalEdgeStyle;" parent="1" source="3ZOsoVZSbwRSdBa1bhDs-8" target="3ZOsoVZSbwRSdBa1bhDs-30" edge="1">
                    <mxGeometry relative="1" as="geometry">
                        <Array as="points">
                            <mxPoint x="460" y="480"/>
                            <mxPoint x="460" y="900"/>
                        </Array>
                    </mxGeometry>
                </mxCell>
                <mxCell id="3ZOsoVZSbwRSdBa1bhDs-8" value="Delete Function" style="sketch=0;points=[[0,0,0],[0.25,0,0],[0.5,0,0],[0.75,0,0],[1,0,0],[0,1,0],[0.25,1,0],[0.5,1,0],[0.75,1,0],[1,1,0],[0,0.25,0],[0,0.5,0],[0,0.75,0],[1,0.25,0],[1,0.5,0],[1,0.75,0]];outlineConnect=0;fontColor=#000000;fillColor=#ED7100;strokeColor=#ffffff;dashed=0;verticalLabelPosition=bottom;verticalAlign=top;align=center;html=1;fontSize=12;fontStyle=0;aspect=fixed;shape=mxgraph.aws4.resourceIcon;resIcon=mxgraph.aws4.lambda;" parent="1" vertex="1">
                    <mxGeometry x="340" y="440" width="80" height="80" as="geometry"/>
                </mxCell>
                <mxCell id="3ZOsoVZSbwRSdBa1bhDs-25" style="rounded=0;orthogonalLoop=1;jettySize=auto;html=1;fontColor=#000000;strokeColor=#000000;edgeStyle=orthogonalEdgeStyle;" parent="1" source="3ZOsoVZSbwRSdBa1bhDs-9" target="3ZOsoVZSbwRSdBa1bhDs-21" edge="1">
                    <mxGeometry relative="1" as="geometry">
                        <Array as="points">
                            <mxPoint x="500" y="590"/>
                            <mxPoint x="500" y="480"/>
                        </Array>
                    </mxGeometry>
                </mxCell>
                <mxCell id="3ZOsoVZSbwRSdBa1bhDs-35" value="events" style="rounded=0;orthogonalLoop=1;jettySize=auto;html=1;fontColor=#000000;strokeColor=#7AA116;edgeStyle=orthogonalEdgeStyle;" parent="1" source="3ZOsoVZSbwRSdBa1bhDs-9" target="3ZOsoVZSbwRSdBa1bhDs-30" edge="1">
                    <mxGeometry x="0.8223" relative="1" as="geometry">
                        <Array as="points">
                            <mxPoint x="460" y="600"/>
                            <mxPoint x="460" y="900"/>
                        </Array>
                        <mxPoint as="offset"/>
                    </mxGeometry>
                </mxCell>
                <mxCell id="3ZOsoVZSbwRSdBa1bhDs-58" style="rounded=0;orthogonalLoop=1;jettySize=auto;html=1;entryX=0.25;entryY=0;entryDx=0;entryDy=0;entryPerimeter=0;fontColor=#000000;strokeColor=#000000;edgeStyle=orthogonalEdgeStyle;" parent="1" source="3ZOsoVZSbwRSdBa1bhDs-9" target="3ZOsoVZSbwRSdBa1bhDs-51" edge="1">
                    <mxGeometry relative="1" as="geometry">
                        <Array as="points">
                            <mxPoint x="310" y="600"/>
                            <mxPoint x="310" y="680"/>
                            <mxPoint x="190" y="680"/>
                        </Array>
                    </mxGeometry>
                </mxCell>
                <mxCell id="2" style="edgeStyle=none;html=1;fontColor=#000000;strokeColor=#000000;" parent="1" source="3ZOsoVZSbwRSdBa1bhDs-9" edge="1" target="11">
                    <mxGeometry relative="1" as="geometry">
                        <mxPoint x="540" y="300" as="targetPoint"/>
                    </mxGeometry>
                </mxCell>
                <mxCell id="3" value="delete&lt;br&gt;requests" style="edgeLabel;html=1;align=center;verticalAlign=middle;resizable=0;points=[];fontColor=#000000;labelBackgroundColor=#FFFFFF;" parent="2" vertex="1" connectable="0">
                    <mxGeometry x="0.1055" relative="1" as="geometry">
                        <mxPoint x="24" y="-31" as="offset"/>
                    </mxGeometry>
                </mxCell>
                <mxCell id="3ZOsoVZSbwRSdBa1bhDs-9" value="Segments Function" style="sketch=0;points=[[0,0,0],[0.25,0,0],[0.5,0,0],[0.75,0,0],[1,0,0],[0,1,0],[0.25,1,0],[0.5,1,0],[0.75,1,0],[1,1,0],[0,0.25,0],[0,0.5,0],[0,0.75,0],[1,0.25,0],[1,0.5,0],[1,0.75,0]];outlineConnect=0;fontColor=#000000;fillColor=#ED7100;strokeColor=#ffffff;dashed=0;verticalLabelPosition=bottom;verticalAlign=top;align=center;html=1;fontSize=12;fontStyle=0;aspect=fixed;shape=mxgraph.aws4.resourceIcon;resIcon=mxgraph.aws4.lambda;" parent="1" vertex="1">
                    <mxGeometry x="340" y="560" width="80" height="80" as="geometry"/>
                </mxCell>
                <mxCell id="3ZOsoVZSbwRSdBa1bhDs-21" value="Segments Table" style="sketch=0;points=[[0,0,0],[0.25,0,0],[0.5,0,0],[0.75,0,0],[1,0,0],[0,1,0],[0.25,1,0],[0.5,1,0],[0.75,1,0],[1,1,0],[0,0.25,0],[0,0.5,0],[0,0.75,0],[1,0.25,0],[1,0.5,0],[1,0.75,0]];outlineConnect=0;fontColor=#000000;fillColor=#C925D1;strokeColor=#ffffff;dashed=0;verticalLabelPosition=bottom;verticalAlign=top;align=center;html=1;fontSize=12;fontStyle=0;aspect=fixed;shape=mxgraph.aws4.resourceIcon;resIcon=mxgraph.aws4.dynamodb;" parent="1" vertex="1">
                    <mxGeometry x="680" y="440" width="78" height="78" as="geometry"/>
                </mxCell>
                <mxCell id="3ZOsoVZSbwRSdBa1bhDs-30" value="Event Bus" style="sketch=0;points=[[0,0,0],[0.25,0,0],[0.5,0,0],[0.75,0,0],[1,0,0],[0,1,0],[0.25,1,0],[0.5,1,0],[0.75,1,0],[1,1,0],[0,0.25,0],[0,0.5,0],[0,0.75,0],[1,0.25,0],[1,0.5,0],[1,0.75,0]];outlineConnect=0;fontColor=#000000;fillColor=#7AA116;strokeColor=#ffffff;dashed=0;verticalLabelPosition=bottom;verticalAlign=top;align=center;html=1;fontSize=12;fontStyle=0;aspect=fixed;shape=mxgraph.aws4.resourceIcon;resIcon=mxgraph.aws4.iot_events;" parent="1" vertex="1">
                    <mxGeometry x="518.78" y="860" width="80" height="80" as="geometry"/>
                </mxCell>
                <mxCell id="3ZOsoVZSbwRSdBa1bhDs-40" style="rounded=0;orthogonalLoop=1;jettySize=auto;html=1;fontColor=#000000;strokeColor=#000000;edgeStyle=orthogonalEdgeStyle;" parent="1" source="3ZOsoVZSbwRSdBa1bhDs-37" target="3ZOsoVZSbwRSdBa1bhDs-39" edge="1">
                    <mxGeometry relative="1" as="geometry">
                        <Array as="points">
                            <mxPoint x="650" y="754"/>
                            <mxPoint x="650" y="754"/>
                        </Array>
                    </mxGeometry>
                </mxCell>
                <mxCell id="3ZOsoVZSbwRSdBa1bhDs-41" value="webhooks" style="edgeLabel;html=1;align=center;verticalAlign=middle;resizable=0;points=[];fontColor=#000000;labelBackgroundColor=#FFFFFF;" parent="3ZOsoVZSbwRSdBa1bhDs-40" vertex="1" connectable="0">
                    <mxGeometry x="-0.0224" y="-1" relative="1" as="geometry">
                        <mxPoint as="offset"/>
                    </mxGeometry>
                </mxCell>
                <mxCell id="3ZOsoVZSbwRSdBa1bhDs-45" style="rounded=0;orthogonalLoop=1;jettySize=auto;html=1;dashed=1;fontColor=#000000;edgeStyle=orthogonalEdgeStyle;" parent="1" source="3ZOsoVZSbwRSdBa1bhDs-37" target="3ZOsoVZSbwRSdBa1bhDs-48" edge="1">
                    <mxGeometry relative="1" as="geometry">
                        <mxPoint x="618" y="119" as="targetPoint"/>
                        <Array as="points">
                            <mxPoint x="810" y="720"/>
                            <mxPoint x="810" y="119"/>
                        </Array>
                    </mxGeometry>
                </mxCell>
                <mxCell id="3ZOsoVZSbwRSdBa1bhDs-39" value="" style="sketch=0;outlineConnect=0;fontColor=#000000;gradientColor=none;fillColor=#000000;strokeColor=none;dashed=0;verticalLabelPosition=bottom;verticalAlign=top;align=center;html=1;fontSize=12;fontStyle=0;aspect=fixed;pointerEvents=1;shape=mxgraph.aws4.internet;" parent="1" vertex="1">
                    <mxGeometry x="680" y="730" width="78" height="48" as="geometry"/>
                </mxCell>
                <mxCell id="3ZOsoVZSbwRSdBa1bhDs-59" style="rounded=0;orthogonalLoop=1;jettySize=auto;html=1;fontColor=#000000;strokeColor=#000000;" parent="1" source="3ZOsoVZSbwRSdBa1bhDs-51" target="3ZOsoVZSbwRSdBa1bhDs-54" edge="1">
                    <mxGeometry relative="1" as="geometry"/>
                </mxCell>
                <mxCell id="3ZOsoVZSbwRSdBa1bhDs-51" value="Cleanup S3" style="sketch=0;points=[[0,0,0],[0.25,0,0],[0.5,0,0],[0.75,0,0],[1,0,0],[0,1,0],[0.25,1,0],[0.5,1,0],[0.75,1,0],[1,1,0],[0,0.25,0],[0,0.5,0],[0,0.75,0],[1,0.25,0],[1,0.5,0],[1,0.75,0]];outlineConnect=0;fontColor=#000000;fillColor=#E7157B;strokeColor=#ffffff;dashed=0;verticalLabelPosition=bottom;verticalAlign=top;align=center;html=1;fontSize=12;fontStyle=0;aspect=fixed;shape=mxgraph.aws4.resourceIcon;resIcon=mxgraph.aws4.sqs;" parent="1" vertex="1">
                    <mxGeometry x="170" y="706" width="80" height="80" as="geometry"/>
                </mxCell>
                <mxCell id="22" style="edgeStyle=orthogonalEdgeStyle;html=1;rounded=0;curved=0;" edge="1" parent="1" source="3ZOsoVZSbwRSdBa1bhDs-52" target="3ZOsoVZSbwRSdBa1bhDs-55">
                    <mxGeometry relative="1" as="geometry">
                        <Array as="points">
                            <mxPoint x="780" y="359"/>
                            <mxPoint x="780" y="598"/>
                        </Array>
                    </mxGeometry>
                </mxCell>
                <mxCell id="3ZOsoVZSbwRSdBa1bhDs-52" value="Delete Requests" style="sketch=0;points=[[0,0,0],[0.25,0,0],[0.5,0,0],[0.75,0,0],[1,0,0],[0,1,0],[0.25,1,0],[0.5,1,0],[0.75,1,0],[1,1,0],[0,0.25,0],[0,0.5,0],[0,0.75,0],[1,0.25,0],[1,0.5,0],[1,0.75,0]];outlineConnect=0;fontColor=#000000;fillColor=#E7157B;strokeColor=#ffffff;dashed=0;verticalLabelPosition=bottom;verticalAlign=top;align=center;html=1;fontSize=12;fontStyle=0;aspect=fixed;shape=mxgraph.aws4.resourceIcon;resIcon=mxgraph.aws4.sqs;" parent="1" vertex="1">
                    <mxGeometry x="680" y="320" width="78" height="78" as="geometry"/>
                </mxCell>
                <mxCell id="3ZOsoVZSbwRSdBa1bhDs-53" value="S3" style="sketch=0;points=[[0,0,0],[0.25,0,0],[0.5,0,0],[0.75,0,0],[1,0,0],[0,1,0],[0.25,1,0],[0.5,1,0],[0.75,1,0],[1,1,0],[0,0.25,0],[0,0.5,0],[0,0.75,0],[1,0.25,0],[1,0.5,0],[1,0.75,0]];outlineConnect=0;fontColor=#000000;fillColor=#7AA116;strokeColor=#ffffff;dashed=0;verticalLabelPosition=bottom;verticalAlign=top;align=center;html=1;fontSize=12;fontStyle=0;aspect=fixed;shape=mxgraph.aws4.resourceIcon;resIcon=mxgraph.aws4.s3;" parent="1" vertex="1">
                    <mxGeometry x="170" y="560" width="80" height="80" as="geometry"/>
                </mxCell>
                <mxCell id="3ZOsoVZSbwRSdBa1bhDs-60" style="rounded=0;orthogonalLoop=1;jettySize=auto;html=1;fontColor=#000000;strokeColor=#000000;edgeStyle=orthogonalEdgeStyle;" parent="1" source="3ZOsoVZSbwRSdBa1bhDs-54" target="3ZOsoVZSbwRSdBa1bhDs-53" edge="1">
                    <mxGeometry relative="1" as="geometry">
                        <Array as="points">
                            <mxPoint x="270" y="730"/>
                            <mxPoint x="270" y="600"/>
                        </Array>
                    </mxGeometry>
                </mxCell>
                <mxCell id="3ZOsoVZSbwRSdBa1bhDs-70" style="rounded=0;orthogonalLoop=1;jettySize=auto;html=1;fontColor=#000000;strokeColor=#000000;edgeStyle=orthogonalEdgeStyle;entryX=0.75;entryY=0;entryDx=0;entryDy=0;entryPerimeter=0;" parent="1" source="3ZOsoVZSbwRSdBa1bhDs-55" target="3ZOsoVZSbwRSdBa1bhDs-51" edge="1">
                    <mxGeometry relative="1" as="geometry">
                        <Array as="points">
                            <mxPoint x="579" y="690"/>
                            <mxPoint x="230" y="690"/>
                        </Array>
                    </mxGeometry>
                </mxCell>
                <mxCell id="6" style="rounded=0;orthogonalLoop=1;jettySize=auto;html=1;fontColor=#000000;strokeColor=#000000;edgeStyle=orthogonalEdgeStyle;exitX=0.5;exitY=0;exitDx=0;exitDy=0;exitPerimeter=0;" parent="1" edge="1" source="3ZOsoVZSbwRSdBa1bhDs-9">
                    <mxGeometry relative="1" as="geometry">
                        <Array as="points">
                            <mxPoint x="380" y="550"/>
                            <mxPoint x="660" y="550"/>
                            <mxPoint x="660" y="370"/>
                            <mxPoint x="680" y="370"/>
                        </Array>
                        <mxPoint x="419" y="599" as="sourcePoint"/>
                        <mxPoint x="680" y="370" as="targetPoint"/>
                    </mxGeometry>
                </mxCell>
                <mxCell id="10" value="async&lt;br&gt;delete" style="edgeLabel;html=1;align=center;verticalAlign=middle;resizable=0;points=[];fontColor=#000000;labelBackgroundColor=#FFFFFF;" parent="6" vertex="1" connectable="0">
                    <mxGeometry x="0.5658" y="2" relative="1" as="geometry">
                        <mxPoint x="-8" y="-98" as="offset"/>
                    </mxGeometry>
                </mxCell>
                <mxCell id="19" style="edgeStyle=none;html=1;" edge="1" parent="1" source="13" target="3ZOsoVZSbwRSdBa1bhDs-1">
                    <mxGeometry relative="1" as="geometry"/>
                </mxCell>
                <mxCell id="13" value="CognitoUtils Function" style="sketch=0;points=[[0,0,0],[0.25,0,0],[0.5,0,0],[0.75,0,0],[1,0,0],[0,1,0],[0.25,1,0],[0.5,1,0],[0.75,1,0],[1,1,0],[0,0.25,0],[0,0.5,0],[0,0.75,0],[1,0.25,0],[1,0.5,0],[1,0.75,0]];outlineConnect=0;fontColor=#000000;fillColor=#ED7100;strokeColor=#ffffff;dashed=0;verticalLabelPosition=bottom;verticalAlign=top;align=center;html=1;fontSize=12;fontStyle=0;aspect=fixed;shape=mxgraph.aws4.resourceIcon;resIcon=mxgraph.aws4.lambda;labelBackgroundColor=default;" vertex="1" parent="1">
                    <mxGeometry x="20" y="80" width="80" height="80" as="geometry"/>
                </mxCell>
                <mxCell id="18" value="" style="group" vertex="1" connectable="0" parent="1">
                    <mxGeometry x="669" y="70" width="100" height="130" as="geometry"/>
                </mxCell>
                <mxCell id="3ZOsoVZSbwRSdBa1bhDs-48" value="Webhooks Table&lt;br&gt;(optional)" style="sketch=0;points=[[0,0,0],[0.25,0,0],[0.5,0,0],[0.75,0,0],[1,0,0],[0,1,0],[0.25,1,0],[0.5,1,0],[0.75,1,0],[1,1,0],[0,0.25,0],[0,0.5,0],[0,0.75,0],[1,0.25,0],[1,0.5,0],[1,0.75,0]];outlineConnect=0;fontColor=#000000;fillColor=#C925D1;strokeColor=#ffffff;dashed=0;verticalLabelPosition=bottom;verticalAlign=top;align=center;html=1;fontSize=12;fontStyle=0;aspect=fixed;shape=mxgraph.aws4.resourceIcon;resIcon=mxgraph.aws4.dynamodb;" parent="18" vertex="1">
                    <mxGeometry x="11" y="10" width="78" height="78" as="geometry"/>
                </mxCell>
                <mxCell id="3ZOsoVZSbwRSdBa1bhDs-50" value="" style="rounded=0;whiteSpace=wrap;html=1;dashed=1;glass=0;opacity=25;fontColor=#000000;" parent="18" vertex="1">
                    <mxGeometry width="100" height="130" as="geometry"/>
                </mxCell>
                <mxCell id="24" style="edgeStyle=orthogonalEdgeStyle;html=1;rounded=0;curved=0;" edge="1" parent="1" source="3ZOsoVZSbwRSdBa1bhDs-55" target="3ZOsoVZSbwRSdBa1bhDs-21">
                    <mxGeometry relative="1" as="geometry">
                        <Array as="points">
                            <mxPoint x="590" y="490"/>
                        </Array>
                    </mxGeometry>
                </mxCell>
            </root>
        </mxGraphModel>
    </diagram>
</mxfile>
